<?xml version="1.0" standalone="no"?>
<!DOCTYPE svg PUBLIC "-//W3C//DTD SVG 20010904//EN"
 "http://www.w3.org/TR/2001/REC-SVG-20010904/DTD/svg10.dtd">
<svg version="1.0" xmlns="http://www.w3.org/2000/svg"
 width="512.000000pt" height="512.000000pt" viewBox="0 0 512.000000 512.000000"
 preserveAspectRatio="xMidYMid meet">
<metadata>
Created by potrace 1.16, written by Peter Selinger 2001-2019
</metadata>
<g transform="translate(0.000000,512.000000) scale(0.0010000,-0.001000)"
fill="#000000" stroke="none">
<path d="M1666 4389 c-28 -4 -82 -24 -120 -43 -66 -33 -118 -83 -747 -713
-711 -713 -721 -724 -771 -863 -20 -57 -23 -83 -23 -210 0 -127 3 -153 23
-210 50 -139 60 -150 771 -863 627 -629 681 -680 746 -713 39 -19 99 -39 135
-45 181 -29 370 71 453 241 l32 65 3 228 3 228 702 -4 c607 -3 712 -6 777 -20
272 -60 471 -168 660 -357 234 -233 356 -508 376 -844 11 -182 70 -258 208
-264 91 -4 146 22 193 92 l33 48 0 865 c0 730 -2 882 -16 972 -47 326 -166
614 -363 881 -68 92 -232 263 -326 340 -280 229 -641 379 -1007 419 -57 7
-334 11 -667 11 l-570 0 -3 228 -3 228 -32 65 c-60 121 -169 207 -300 234 -75
16 -94 17 -167 4z"/>
</g>
</svg>
