<?xml version="1.0" standalone="no"?>
<!DOCTYPE svg PUBLIC "-//W3C//DTD SVG 20010904//EN"
 "http://www.w3.org/TR/2001/REC-SVG-20010904/DTD/svg10.dtd">
<svg version="1.0" xmlns="http://www.w3.org/2000/svg"
 width="225.000000pt" height="225.000000pt" viewBox="0 0 225.000000 225.000000"
 preserveAspectRatio="xMidYMid meet">

<g transform="translate(0.000000,225.000000) scale(0.100000,-0.100000)"
fill="#000000" stroke="none">
<path d="M322 2098 c-9 -9 -12 -199 -12 -792 0 -430 4 -786 8 -792 4 -6 164
-93 356 -193 263 -138 354 -181 372 -177 23 6 24 7 26 179 l3 172 175 2 c153
2 176 4 187 19 10 14 13 90 13 316 0 288 -1 299 -21 319 -18 18 -23 19 -42 6
-22 -14 -22 -19 -25 -296 l-2 -281 -145 0 -145 0 -2 581 -3 581 -263 138
c-145 76 -266 141 -269 144 -4 3 181 6 410 6 l417 0 0 -266 c0 -164 4 -273 10
-285 14 -25 56 -25 70 1 7 14 10 118 8 316 -3 249 -5 296 -18 304 -24 15
-1093 13 -1108 -2z"/>
<path d="M1638 1679 c-10 -5 -18 -19 -18 -31 0 -11 43 -81 95 -154 52 -74 95
-139 95 -144 0 -6 -121 -10 -330 -10 l-330 0 -6 -27 c-13 -51 -1 -53 348 -53
175 0 318 -3 318 -6 0 -3 -43 -67 -95 -142 -57 -81 -95 -144 -93 -156 4 -23
30 -41 50 -34 19 8 268 361 268 381 0 17 -233 354 -258 375 -19 14 -22 14 -44
1z"/>
</g>
</svg>
