<?xml version="1.0" standalone="no"?>
<!DOCTYPE svg PUBLIC "-//W3C//DTD SVG 20010904//EN"
 "http://www.w3.org/TR/2001/REC-SVG-20010904/DTD/svg10.dtd">
<svg version="1.0" xmlns="http://www.w3.org/2000/svg"
 width="271.000000pt" height="77.000000pt" viewBox="0 0 271.000000 77.000000"
 preserveAspectRatio="xMidYMid meet">

<g transform="translate(0.000000,77.000000) scale(0.1,-0.1)"
fill="#000000" stroke="none">
<path d="M305 710 c-110 -55 -169 -148 -168 -265 0 -93 31 -164 102 -227 114
-103 278 -103 393 1 82 73 118 175 97 274 -32 150 -136 239 -289 245 -67 2
-81 0 -135 -28z m206 -71 c50 -26 79 -75 79 -130 0 -42 -15 -67 -68 -117 -67
-63 -76 -38 -12 33 49 54 52 60 47 99 -4 29 -15 49 -38 70 -28 25 -38 28 -78
23 -81 -9 -117 -88 -75 -169 10 -20 14 -42 10 -64 -7 -32 -5 -33 36 -45 52
-15 68 -27 50 -38 -7 -4 -10 -15 -6 -24 4 -13 1 -17 -15 -17 -14 0 -19 -5 -15
-15 8 -20 -45 -21 -72 -1 -18 14 -18 15 6 25 22 9 23 10 4 10 -29 1 -36 11
-21 29 9 12 9 16 0 19 -8 3 -10 20 -6 52 4 33 1 57 -11 79 -31 59 -14 118 46
166 36 28 102 35 139 15z"/>
<path d="M378 303 c6 -2 18 -2 25 0 6 3 1 5 -13 5 -14 0 -19 -2 -12 -5z"/>
<path d="M984 634 c-29 -7 -101 -70 -119 -105 -8 -15 -15 -55 -15 -87 0 -50 5
-66 30 -100 46 -64 73 -77 156 -77 92 0 105 9 211 151 105 140 118 152 158
160 107 20 193 -80 152 -177 -17 -42 -41 -63 -88 -79 -44 -16 -83 -3 -135 42
-29 26 -33 27 -48 13 -13 -13 -16 -40 -16 -139 0 -67 2 -125 5 -128 3 -3 17
-3 30 0 24 4 25 7 25 89 0 76 2 84 17 79 32 -13 102 -18 137 -12 42 8 100 55
123 100 22 43 20 123 -5 172 -11 23 -40 53 -64 69 -35 24 -54 29 -103 30 -51
0 -66 -5 -102 -30 -23 -17 -59 -54 -80 -84 -139 -195 -179 -227 -252 -201 -47
16 -71 37 -88 79 -41 97 51 202 154 176 16 -3 42 -17 60 -31 37 -28 49 -30 57
-9 9 24 -3 41 -45 70 -40 26 -110 39 -155 29z"/>
<path d="M1805 633 c-32 -8 -84 -52 -112 -94 -22 -34 -25 -47 -21 -103 3 -50
10 -71 32 -100 40 -53 68 -68 139 -73 69 -5 129 17 135 51 7 35 -14 40 -63 16
-42 -20 -51 -21 -88 -10 -22 6 -53 25 -69 40 -24 24 -28 36 -28 84 0 50 4 61
33 92 26 28 42 37 77 41 52 5 113 -22 118 -53 2 -16 -10 -23 -70 -39 -66 -18
-73 -23 -76 -48 -3 -21 1 -27 17 -27 11 0 30 4 43 9 13 6 56 19 96 31 78 23
82 30 56 85 -23 48 -93 95 -151 100 -27 2 -57 1 -68 -2z"/>
<path d="M2000 396 c0 -32 18 -43 37 -23 20 20 10 47 -17 47 -15 0 -20 -7 -20
-24z"/>
</g>
</svg>
