<?xml version="1.0" standalone="no"?>
<!DOCTYPE svg PUBLIC "-//W3C//DTD SVG 20010904//EN"
 "http://www.w3.org/TR/2001/REC-SVG-20010904/DTD/svg10.dtd">
<svg version="1.0" xmlns="http://www.w3.org/2000/svg"
 width="200.000000pt" height="200.000000pt" viewBox="0 0 200.000000 200.000000"
 preserveAspectRatio="xMidYMid meet">

<g transform="translate(0.000000,200.000000) scale(0.100000,-0.100000)"
fill="#000000" stroke="none">
<path d="M0 1000 l0 -1000 1000 0 1000 0 0 1000 0 1000 -1000 0 -1000 0 0
-1000z m1164 419 c61 -28 130 -106 152 -171 22 -68 15 -157 -19 -223 -26 -51
-52 -79 -121 -129 -21 -16 -44 -44 -52 -62 -17 -41 -54 -48 -54 -10 0 34 38
85 100 132 78 59 105 111 105 199 -1 117 -61 199 -170 231 -94 27 -183 0 -247
-76 -65 -75 -75 -168 -29 -266 44 -94 47 -131 15 -235 -3 -13 15 -20 93 -39
112 -26 133 -35 133 -56 0 -31 -22 -28 -232 27 -48 12 -54 34 -33 121 16 72
16 77 -23 158 -36 74 -38 203 -5 266 30 57 116 131 172 149 60 19 155 12 215
-16z m-240 -730 c105 -25 126 -34 126 -55 0 -26 -25 -26 -141 4 -99 24 -114
31 -117 50 -4 28 13 28 132 1z m-11 -83 c71 -17 88 -30 66 -52 -14 -14 -22
-13 -80 1 -79 20 -94 28 -86 49 8 19 25 20 100 2z"/>
</g>
</svg>
